<?xml version="1.0" encoding="UTF-8" standalone="no"?>
<!-- Uploaded to: SVG Repo, www.svgrepo.com, Generator: SVG Repo Mixer Tools -->

<svg
   width="800px"
   height="800px"
   viewBox="0 0 36 36"
   aria-hidden="true"
   role="img"
   class="iconify iconify--twemoji"
   preserveAspectRatio="xMidYMid meet"
   version="1.1"
   id="svg5"
   sodipodi:docname="poopos.svg"
   inkscape:version="1.4 (e7c3feb100, 2024-10-09)"
   xmlns:inkscape="http://www.inkscape.org/namespaces/inkscape"
   xmlns:sodipodi="http://sodipodi.sourceforge.net/DTD/sodipodi-0.dtd"
   xmlns="http://www.w3.org/2000/svg"
   xmlns:svg="http://www.w3.org/2000/svg">
  <defs
     id="defs5" />
  <sodipodi:namedview
     id="namedview5"
     pagecolor="#ffffff"
     bordercolor="#000000"
     borderopacity="0.25"
     inkscape:showpageshadow="2"
     inkscape:pageopacity="0.0"
     inkscape:pagecheckerboard="0"
     inkscape:deskcolor="#d1d1d1"
     inkscape:zoom="0.79"
     inkscape:cx="399.36709"
     inkscape:cy="399.36709"
     inkscape:window-width="2528"
     inkscape:window-height="1014"
     inkscape:window-x="0"
     inkscape:window-y="0"
     inkscape:window-maximized="0"
     inkscape:current-layer="svg5" />
  <path
     fill="#BF6952"
     d="M33.541 23.198c.364-1.578.243-3.266-.458-4.946a8.018 8.018 0 0 0-3.271-3.773c.318-1.192.234-2.475-.324-3.75c-.841-1.92-2.66-3.201-4.712-3.562c.249-.572.329-1.289.036-2.167c-1-3-5-1-8-4.999c-2.44 1.464-2.97 3.64-2.878 5.487c-2.421.412-3.8.936-3.8.936v.002a3.713 3.713 0 0 0-2.322 3.442c0 .879.318 1.676.828 2.312l-.692.258l.001.003c-2.33.871-3.975 2.976-3.975 5.439c0 1.047.3 2.027.82 2.878C1.971 22.027 0 24.781 0 28c0 4.418 3.691 8 8.244 8c3.269 0 6.559-.703 9.531-1.665C20.018 35.375 23.47 36 28.667 36A7.333 7.333 0 0 0 36 28.667a7.31 7.31 0 0 0-2.459-5.469z"
     id="path1"
     style="fill:#502d16" />
</svg>
